<svg width="320" height="180" viewBox="0 0 320 180" fill="none" xmlns="http://www.w3.org/2000/svg">
<path d="M180.797 94.4009H133.072C132.929 94.4009 132.791 94.3486 132.684 94.2541C131.15 92.899 129.174 92.1527 127.123 92.1527C125.071 92.1527 123.096 92.899 121.562 94.2541C121.455 94.3486 121.317 94.4009 121.174 94.4009H108.295C107.971 94.4009 107.709 94.1386 107.709 93.8149V46.568C107.709 41.7715 111.611 37.8691 116.408 37.8691H172.684C177.48 37.8691 181.382 41.7713 181.382 46.568V93.8149C181.383 94.1386 181.12 94.4009 180.797 94.4009ZM133.29 93.229H180.211V46.568C180.211 42.4177 176.834 39.041 172.684 39.041H116.408C112.258 39.041 108.881 42.4177 108.881 46.568V93.229H120.956C122.68 91.7775 124.86 90.9809 127.123 90.9809C129.385 90.9809 131.566 91.7773 133.29 93.229Z" fill="#666666"/>
<path d="M210.917 94.4004H204.729C204.588 94.4004 204.452 94.3495 204.345 94.2572C204.309 94.2258 204.273 94.1944 204.237 94.1655C202.709 92.8629 200.777 92.1523 198.78 92.1523C196.783 92.1523 194.85 92.8629 193.337 94.1536C193.287 94.1944 193.251 94.2255 193.215 94.2567C193.109 94.3495 192.972 94.4004 192.831 94.4004H183.889C183.733 94.4004 183.584 94.3385 183.474 94.2281C183.364 94.118 183.302 93.9684 183.303 93.8128L183.353 75.0916V61.0706C183.353 59.5884 184.559 58.3828 186.041 58.3828H205.071C207.091 58.3828 208.832 59.8901 209.122 61.8888L211.463 78.0328C211.489 78.2215 211.503 78.4116 211.503 78.6002V93.8145C211.503 94.1381 211.24 94.4004 210.917 94.4004ZM204.943 93.2285H210.331V78.6002C210.331 78.4659 210.321 78.3307 210.303 78.1985L207.962 62.0569C207.756 60.6305 206.513 59.5547 205.072 59.5547H186.041C185.205 59.5547 184.525 60.2348 184.525 61.0706V75.0933L184.476 93.2285H192.616C194.323 91.7827 196.515 90.9804 198.779 90.9804C201.038 90.9804 203.224 91.7782 204.943 93.2285Z" fill="#666666"/>
<path d="M118.13 101.146H108.294C106.112 101.146 104.336 99.3699 104.336 97.1874C104.336 96.1282 104.747 95.1338 105.494 94.3873C106.24 93.6406 107.235 93.2295 108.294 93.2295H121.173C121.416 93.2295 121.635 93.3802 121.721 93.608C121.807 93.8358 121.744 94.0932 121.561 94.2544C119.753 95.8531 118.716 98.1514 118.716 100.56C118.716 100.883 118.453 101.146 118.13 101.146ZM108.294 94.4011C107.548 94.4011 106.848 94.6903 106.323 95.2158C105.797 95.7413 105.508 96.4414 105.508 97.1874C105.508 98.7237 106.758 99.9736 108.294 99.9736H117.562C117.688 97.9214 118.472 95.9684 119.787 94.4011H108.294Z" fill="#666666"/>
<path d="M189.787 101.145H136.114C135.958 101.145 135.809 101.083 135.699 100.973C135.589 100.863 135.528 100.714 135.528 100.559C135.528 98.1504 134.491 95.8521 132.682 94.2534C132.5 94.0922 132.436 93.8346 132.522 93.607C132.609 93.3792 132.827 93.2285 133.07 93.2285H192.831C193.074 93.2285 193.293 93.3792 193.379 93.607C193.465 93.8348 193.402 94.0922 193.219 94.2534C191.411 95.8521 190.373 98.1502 190.373 100.559C190.373 100.883 190.111 101.145 189.787 101.145ZM136.682 99.9729H189.22C189.346 97.9207 190.13 95.9677 191.445 94.4004H134.457C135.771 95.9674 136.556 97.9205 136.682 99.9729Z" fill="#666666"/>
<path d="M211.708 101.145H207.774C207.45 101.145 207.188 100.883 207.188 100.559C207.188 98.1504 206.151 95.8521 204.342 94.2534C204.16 94.0922 204.096 93.8346 204.183 93.607C204.269 93.3792 204.487 93.2285 204.731 93.2285H211.708C213.891 93.2285 215.666 95.0041 215.666 97.1866C215.666 99.3691 213.891 101.145 211.708 101.145ZM208.342 99.9729H211.708C213.244 99.9729 214.494 98.723 214.494 97.1866C214.494 95.6503 213.244 94.4004 211.708 94.4004H206.117C207.431 95.9674 208.216 97.9205 208.342 99.9729Z" fill="#666666"/>
<path d="M198.78 105.079C196.288 105.079 194.26 103.052 194.26 100.559C194.26 98.0666 196.287 96.0391 198.78 96.0391C201.273 96.0391 203.3 98.0669 203.3 100.559C203.3 103.052 201.272 105.079 198.78 105.079ZM198.78 97.2112C196.934 97.2112 195.432 98.7133 195.432 100.559C195.432 102.406 196.934 103.908 198.78 103.908C200.626 103.908 202.128 102.406 202.128 100.559C202.128 98.7131 200.626 97.2112 198.78 97.2112Z" fill="#666666"/>
<path d="M198.782 110.138C193.5 110.138 189.203 105.841 189.203 100.559C189.203 97.8151 190.385 95.1966 192.445 93.3758C192.497 93.3305 192.545 93.2888 192.593 93.2502C194.303 91.7907 196.506 90.9805 198.782 90.9805C201.057 90.9805 203.26 91.7907 204.985 93.2621C205.018 93.2886 205.066 93.3301 205.115 93.372C205.116 93.3732 205.117 93.3744 205.119 93.3758C207.179 95.1969 208.36 97.8148 208.36 100.559C208.36 105.841 204.063 110.138 198.782 110.138ZM198.782 92.1528C196.785 92.1528 194.852 92.8634 193.339 94.1541C193.289 94.1949 193.253 94.2261 193.217 94.2573C191.412 95.8527 190.375 98.1509 190.375 100.559C190.375 105.195 194.146 108.966 198.782 108.966C203.417 108.966 207.188 105.195 207.188 100.559C207.188 98.1516 206.152 95.8541 204.344 94.2556C204.309 94.2249 204.274 94.1942 204.239 94.1661C202.711 92.8634 200.778 92.1528 198.782 92.1528ZM198.782 105.079C196.289 105.079 194.261 103.052 194.261 100.559C194.261 98.0666 196.289 96.039 198.782 96.039C201.274 96.039 203.302 98.0668 203.302 100.559C203.302 103.051 201.274 105.079 198.782 105.079ZM198.782 97.2111C196.935 97.2111 195.433 98.7132 195.433 100.559C195.433 102.406 196.935 103.908 198.782 103.908C200.628 103.908 202.13 102.406 202.13 100.559C202.13 98.713 200.628 97.2111 198.782 97.2111Z" fill="#666666"/>
<path d="M127.121 110.137C121.84 110.137 117.543 105.841 117.543 100.559C117.543 97.8148 118.724 95.1966 120.784 93.3756C122.534 91.831 124.784 90.9805 127.121 90.9805C129.459 90.9805 131.709 91.831 133.458 93.3753C133.458 93.3753 133.458 93.3753 133.459 93.3756C135.519 95.1966 136.7 97.8146 136.7 100.559C136.7 105.841 132.403 110.137 127.121 110.137ZM127.121 92.1526C125.07 92.1526 123.095 92.8988 121.56 94.254C119.752 95.8524 118.715 98.1507 118.715 100.559C118.715 105.194 122.486 108.966 127.121 108.966C131.757 108.966 135.528 105.195 135.528 100.559C135.528 98.1507 134.491 95.8524 132.682 94.2538C131.148 92.8988 129.173 92.1526 127.121 92.1526ZM127.121 105.079C124.629 105.079 122.601 103.051 122.601 100.559C122.601 98.0663 124.629 96.0387 127.121 96.0387C129.614 96.0387 131.642 98.0666 131.642 100.559C131.642 103.051 129.614 105.079 127.121 105.079ZM127.121 97.2109C125.275 97.2109 123.773 98.713 123.773 100.559C123.773 102.405 125.275 103.907 127.121 103.907C128.968 103.907 130.47 102.405 130.47 100.559C130.47 98.7127 128.968 97.2109 127.121 97.2109Z" fill="#666666"/>
<path d="M127.122 105.079C124.629 105.079 122.602 103.052 122.602 100.559C122.602 98.0666 124.629 96.0391 127.122 96.0391C129.614 96.0391 131.642 98.0669 131.642 100.559C131.642 103.052 129.614 105.079 127.122 105.079ZM127.122 97.2112C125.276 97.2112 123.773 98.7133 123.773 100.559C123.773 102.406 125.276 103.908 127.122 103.908C128.968 103.908 130.47 102.406 130.47 100.559C130.47 98.7131 128.968 97.2112 127.122 97.2112Z" fill="#666666"/>
<path d="M204.567 74.7299H189.829C188.561 74.7299 187.529 73.6984 187.529 72.4305V63.985C187.529 62.4456 188.782 61.1934 190.321 61.1934H202.376C203.847 61.1934 205.082 62.2476 205.313 63.6998L206.675 72.2598C206.773 72.8779 206.597 73.5051 206.19 73.9811C205.784 74.4571 205.192 74.7299 204.567 74.7299ZM190.321 62.3652C189.428 62.3652 188.701 63.0918 188.701 63.985V72.4305C188.701 73.0523 189.207 73.558 189.829 73.558H204.567C204.849 73.558 205.116 73.435 205.299 73.2203C205.482 73.0056 205.562 72.7227 205.518 72.4441L204.156 63.884C204.016 63.0041 203.267 62.3655 202.376 62.3655L190.321 62.3652Z" fill="#666666"/>
<path d="M210.864 90.1857H207.492C207.169 90.1857 206.906 89.9234 206.906 89.5998V85.1035C206.906 84.7798 207.169 84.5176 207.492 84.5176H210.864C211.188 84.5176 211.45 84.7798 211.45 85.1035V89.5998C211.45 89.9234 211.188 90.1857 210.864 90.1857ZM208.078 89.0138H210.278V85.6895H208.078V89.0138Z" fill="#666666"/>
<path d="M143.968 80.5869C143.763 80.5869 143.558 80.5827 143.354 80.5745C139.671 80.4252 136.18 78.9329 133.525 76.3722C130.561 73.5095 128.93 69.6657 128.93 65.5489C128.93 61.404 130.582 57.5411 133.583 54.6718C136.304 52.0757 139.869 50.5996 143.621 50.515C143.733 50.511 143.848 50.5107 143.968 50.5107C144.274 50.5107 144.508 50.5173 144.726 50.5323C148.186 50.7006 151.516 52.0846 154.093 54.4288C157.215 57.2786 159.006 61.3316 159.006 65.5487C159.006 69.8277 157.171 73.9201 153.972 76.7767C151.345 79.12 147.961 80.47 144.443 80.5785C144.283 80.5829 144.125 80.5869 143.968 80.5869ZM143.948 51.6829C143.85 51.6829 143.754 51.6829 143.655 51.6866C140.189 51.7649 136.901 53.1261 134.392 55.5196C131.626 58.1652 130.102 61.7275 130.102 65.5492C130.102 69.3454 131.606 72.8896 134.339 75.5293C136.787 77.8902 140.006 79.2662 143.401 79.4038C143.738 79.4174 144.073 79.4164 144.41 79.4075C147.65 79.3075 150.77 78.0629 153.192 75.9027C156.142 73.2686 157.834 69.4946 157.834 65.5492C157.834 61.6604 156.183 57.9231 153.304 55.2953C150.929 53.1341 147.858 51.8579 144.658 51.7023C144.451 51.6882 144.233 51.6836 143.948 51.6829Z" fill="#666666"/>
<path d="M143.667 58.5071C142.11 58.5071 140.556 58.3119 139.05 57.9268C137.156 57.4433 135.346 56.6568 133.673 55.5889C133.522 55.4922 133.423 55.3309 133.405 55.1518C133.388 54.9725 133.454 54.7954 133.584 54.6711C136.305 52.0757 139.87 50.5996 143.622 50.515C143.734 50.511 143.849 50.5107 143.968 50.5107C144.275 50.5107 144.509 50.5173 144.727 50.5323C148.187 50.7006 151.517 52.0846 154.094 54.4288C154.227 54.55 154.297 54.7255 154.284 54.9048C154.271 55.0843 154.176 55.2477 154.027 55.3482C152.451 56.4083 150.741 57.2146 148.944 57.7445C147.329 58.2236 145.658 58.4788 143.977 58.5029C143.884 58.5069 143.775 58.5071 143.667 58.5071ZM134.965 55.003C136.344 55.8011 137.813 56.4015 139.34 56.7915C140.758 57.1541 142.227 57.3432 143.689 57.3353C143.774 57.3353 143.86 57.3353 143.945 57.3318C145.533 57.3088 147.098 57.0697 148.611 56.6209C150.05 56.1967 151.429 55.5833 152.722 54.7937C150.437 52.9368 147.603 51.8453 144.659 51.7021C144.452 51.688 144.234 51.6833 143.949 51.6826C143.851 51.6826 143.755 51.6826 143.656 51.6864C140.447 51.7586 137.391 52.9304 134.965 55.003Z" fill="#666666"/>
<path d="M144.425 80.5794C144.3 80.5794 144.179 80.5396 144.078 80.4653C143.925 80.353 143.772 80.2365 143.62 80.116C143.587 80.0935 143.558 80.0703 143.524 80.042C141.478 78.4276 139.756 76.3314 138.556 73.99C137.248 71.4287 136.557 68.545 136.557 65.6497V65.5494C136.573 62.5953 137.305 59.6699 138.676 57.0852C139.872 54.8178 141.576 52.7802 143.606 51.1935C143.67 51.1414 143.738 51.0878 143.81 51.0376C143.987 50.901 144.164 50.7721 144.342 50.6432C144.45 50.5649 144.582 50.526 144.715 50.5318C148.186 50.7008 151.516 52.0848 154.093 54.429C157.215 57.2788 159.005 61.3318 159.005 65.5489C159.005 69.8279 157.171 73.9203 153.972 76.7769C151.345 79.1202 147.961 80.4702 144.443 80.5787C144.437 80.5794 144.431 80.5794 144.425 80.5794ZM144.862 51.714C144.746 51.7989 144.63 51.8846 144.515 51.9742C144.506 51.9807 144.497 51.9871 144.488 51.9934C144.437 52.0288 144.389 52.0679 144.337 52.1099C142.428 53.6024 140.832 55.5097 139.712 57.6329C138.43 60.0521 137.744 62.7901 137.729 65.5525V65.6497C137.729 68.3605 138.376 71.06 139.6 73.4563C140.722 75.6484 142.335 77.6113 144.262 79.1319L144.293 79.157C144.3 79.1617 144.324 79.1792 144.331 79.1842C144.423 79.2575 144.516 79.3295 144.61 79.3998C147.78 79.2552 150.82 78.0179 153.192 75.9027C156.142 73.2685 157.834 69.4946 157.834 65.5492C157.834 61.6604 156.183 57.9231 153.303 55.2953C150.979 53.1807 147.988 51.9132 144.862 51.714Z" fill="#666666"/>
<path d="M143.968 80.5865C143.763 80.5865 143.558 80.5823 143.354 80.574C139.671 80.4248 136.18 78.9325 133.525 76.3717C133.396 76.247 133.331 76.0703 133.349 75.8917C133.366 75.7131 133.465 75.5526 133.616 75.456C135.257 74.4088 137.046 73.6344 138.934 73.1542C140.49 72.7586 142.114 72.573 143.727 72.5922C143.808 72.5931 143.888 72.594 143.968 72.594C145.633 72.643 147.263 72.9095 148.828 73.3862C150.647 73.9419 152.359 74.7737 153.917 75.8584C154.065 75.9608 154.157 76.1251 154.167 76.3042C154.178 76.4833 154.106 76.6572 153.972 76.7767C151.346 79.1198 147.961 80.4698 144.443 80.5783C144.283 80.5825 144.125 80.5865 143.968 80.5865ZM134.904 76.0448C137.273 78.0894 140.261 79.2758 143.401 79.4031C143.738 79.4167 144.073 79.4158 144.41 79.4069C147.395 79.3148 150.278 78.2512 152.607 76.3954C151.325 75.5858 149.941 74.9519 148.485 74.507C147.021 74.0608 145.495 73.8114 143.95 73.7655C143.884 73.7655 143.799 73.7648 143.713 73.7636C142.202 73.7479 140.679 73.9192 139.223 74.2895C137.705 74.676 136.256 75.265 134.904 76.0448Z" fill="#666666"/>
<path d="M143.378 80.575C143.37 80.575 143.362 80.575 143.354 80.5746C139.671 80.4253 136.18 78.933 133.525 76.3722C130.561 73.5096 128.93 69.6658 128.93 65.549C128.93 61.4041 130.582 57.5411 133.583 54.6719C136.304 52.0757 139.869 50.5996 143.621 50.515C143.755 50.5101 143.881 50.5535 143.986 50.6322C144.105 50.7215 144.219 50.8071 144.329 50.8961C144.401 50.9505 144.473 51.0089 144.54 51.0674C146.515 52.668 148.121 54.6391 149.298 56.9135C150.678 59.5671 151.378 62.4391 151.378 65.4487V65.549C151.362 68.5762 150.6 71.5753 149.173 74.2251C147.965 76.4702 146.343 78.4078 144.35 79.9842C144.312 80.0184 144.276 80.0444 144.247 80.0639C144.096 80.186 143.928 80.3132 143.722 80.463C143.622 80.5359 143.501 80.575 143.378 80.575ZM143.446 51.6928C140.061 51.8182 136.853 53.1726 134.392 55.5194C131.626 58.165 130.102 61.7273 130.102 65.549C130.102 69.3452 131.606 72.8894 134.339 75.5292C136.738 77.8427 139.877 79.2107 143.198 79.394C143.323 79.301 143.431 79.2171 143.531 79.1362C143.545 79.1247 143.56 79.1137 143.575 79.1034C143.575 79.1039 143.563 79.1149 143.552 79.1264C143.569 79.1097 143.586 79.094 143.604 79.0795C145.479 77.6001 147.005 75.7799 148.14 73.6696C149.477 71.1878 150.191 68.3786 150.206 65.5457V65.4485C150.206 62.6292 149.55 59.9392 148.257 57.453C147.154 55.3218 145.651 53.4759 143.787 51.9653C143.723 51.9096 143.669 51.8662 143.616 51.8261C143.61 51.8214 143.604 51.8165 143.598 51.8116C143.548 51.7715 143.497 51.7319 143.446 51.6928Z" fill="#666666"/>
<path d="M158.42 66.1348H129.516C129.192 66.1348 128.93 65.8725 128.93 65.5488C128.93 65.2252 129.192 64.9629 129.516 64.9629H158.42C158.744 64.9629 159.006 65.2252 159.006 65.5488C159.006 65.8725 158.744 66.1348 158.42 66.1348Z" fill="#666666"/>
<path d="M143.967 80.5867C143.643 80.5867 143.381 80.3244 143.381 80.0007V51.0967C143.381 50.773 143.643 50.5107 143.967 50.5107C144.29 50.5107 144.553 50.773 144.553 51.0967V80.001C144.553 80.3244 144.29 80.5867 143.967 80.5867Z" fill="#666666"/>
<path d="M133.991 51.1006H116.568C116.245 51.1006 115.982 50.8383 115.982 50.5147C115.982 50.191 116.245 49.9287 116.568 49.9287H133.991C134.315 49.9287 134.577 50.191 134.577 50.5147C134.577 50.8383 134.315 51.1006 133.991 51.1006Z" fill="#666666"/>
<path d="M128.654 57.8447H111.512C111.188 57.8447 110.926 57.5825 110.926 57.2588C110.926 56.9351 111.188 56.6729 111.512 56.6729H128.654C128.977 56.6729 129.24 56.9351 129.24 57.2588C129.24 57.5825 128.977 57.8447 128.654 57.8447Z" fill="#666666"/>
<path d="M161.532 65.994C161.208 65.994 160.946 65.7318 160.946 65.4081C160.946 55.9693 153.267 48.29 143.828 48.29C143.504 48.29 143.242 48.0278 143.242 47.7041C143.242 47.3804 143.504 47.1182 143.828 47.1182C153.913 47.1182 162.118 55.3229 162.118 65.4081C162.118 65.7318 161.856 65.994 161.532 65.994Z" fill="#666666"/>
<path d="M143.827 83.6981C133.742 83.6981 125.537 75.4934 125.537 65.4082C125.537 65.0845 125.799 64.8223 126.123 64.8223C126.447 64.8223 126.709 65.0845 126.709 65.4082C126.709 74.847 134.388 82.5263 143.827 82.5263C144.151 82.5263 144.413 82.7885 144.413 83.1122C144.413 83.4359 144.151 83.6981 143.827 83.6981Z" fill="#666666"/>
<path d="M144.476 157.14C143.556 157.14 142.729 156.98 141.996 156.66C141.276 156.327 140.709 155.873 140.296 155.3C139.882 154.713 139.669 154.04 139.656 153.28H141.596C141.662 153.933 141.929 154.487 142.396 154.94C142.876 155.38 143.569 155.6 144.476 155.6C145.342 155.6 146.022 155.387 146.516 154.96C147.022 154.52 147.276 153.96 147.276 153.28C147.276 152.747 147.129 152.313 146.836 151.98C146.542 151.647 146.176 151.393 145.736 151.22C145.296 151.047 144.702 150.86 143.956 150.66C143.036 150.42 142.296 150.18 141.736 149.94C141.189 149.7 140.716 149.327 140.316 148.82C139.929 148.3 139.736 147.607 139.736 146.74C139.736 145.98 139.929 145.307 140.316 144.72C140.702 144.133 141.242 143.68 141.936 143.36C142.642 143.04 143.449 142.88 144.356 142.88C145.662 142.88 146.729 143.207 147.556 143.86C148.396 144.513 148.869 145.38 148.976 146.46H146.976C146.909 145.927 146.629 145.46 146.136 145.06C145.642 144.647 144.989 144.44 144.176 144.44C143.416 144.44 142.796 144.64 142.316 145.04C141.836 145.427 141.596 145.973 141.596 146.68C141.596 147.187 141.736 147.6 142.016 147.92C142.309 148.24 142.662 148.487 143.076 148.66C143.502 148.82 144.096 149.007 144.856 149.22C145.776 149.473 146.516 149.727 147.076 149.98C147.636 150.22 148.116 150.6 148.516 151.12C148.916 151.627 149.116 152.32 149.116 153.2C149.116 153.88 148.936 154.52 148.576 155.12C148.216 155.72 147.682 156.207 146.976 156.58C146.269 156.953 145.436 157.14 144.476 157.14ZM157.234 145.84C158.061 145.84 158.807 146.02 159.474 146.38C160.141 146.727 160.661 147.253 161.034 147.96C161.421 148.667 161.614 149.527 161.614 150.54V157H159.814V150.8C159.814 149.707 159.541 148.873 158.994 148.3C158.447 147.713 157.701 147.42 156.754 147.42C155.794 147.42 155.027 147.72 154.454 148.32C153.894 148.92 153.614 149.793 153.614 150.94V157H151.794V142.2H153.614V147.6C153.974 147.04 154.467 146.607 155.094 146.3C155.734 145.993 156.447 145.84 157.234 145.84ZM165.527 144.26C165.18 144.26 164.887 144.14 164.647 143.9C164.407 143.66 164.287 143.367 164.287 143.02C164.287 142.673 164.407 142.38 164.647 142.14C164.887 141.9 165.18 141.78 165.527 141.78C165.86 141.78 166.14 141.9 166.367 142.14C166.607 142.38 166.727 142.673 166.727 143.02C166.727 143.367 166.607 143.66 166.367 143.9C166.14 144.14 165.86 144.26 165.527 144.26ZM166.407 146.04V157H164.587V146.04H166.407ZM171.329 148.06C171.689 147.433 172.222 146.913 172.929 146.5C173.649 146.073 174.482 145.86 175.429 145.86C176.402 145.86 177.282 146.093 178.069 146.56C178.869 147.027 179.495 147.687 179.949 148.54C180.402 149.38 180.629 150.36 180.629 151.48C180.629 152.587 180.402 153.573 179.949 154.44C179.495 155.307 178.869 155.98 178.069 156.46C177.282 156.94 176.402 157.18 175.429 157.18C174.495 157.18 173.669 156.973 172.949 156.56C172.242 156.133 171.702 155.607 171.329 154.98V162.2H169.509V146.04H171.329V148.06ZM178.769 151.48C178.769 150.653 178.602 149.933 178.269 149.32C177.935 148.707 177.482 148.24 176.909 147.92C176.349 147.6 175.729 147.44 175.049 147.44C174.382 147.44 173.762 147.607 173.189 147.94C172.629 148.26 172.175 148.733 171.829 149.36C171.495 149.973 171.329 150.687 171.329 151.5C171.329 152.327 171.495 153.053 171.829 153.68C172.175 154.293 172.629 154.767 173.189 155.1C173.762 155.42 174.382 155.58 175.049 155.58C175.729 155.58 176.349 155.42 176.909 155.1C177.482 154.767 177.935 154.293 178.269 153.68C178.602 153.053 178.769 152.32 178.769 151.48Z" fill="#333333"/>
</svg>
