<svg width="392" height="180" viewBox="0 0 392 180" fill="none" xmlns="http://www.w3.org/2000/svg">
<g filter="url(#filter0_d_315_109366)">
<rect width="320" height="180" fill="#F44E32"/>
<path d="M186.111 98.2336H142.442C142.299 98.2336 142.161 98.1813 142.054 98.0868C140.658 96.855 138.863 96.1764 136.998 96.1764C135.133 96.1764 133.337 96.855 131.942 98.0868C131.835 98.1813 131.697 98.2336 131.554 98.2336H119.77C119.446 98.2336 119.184 97.9713 119.184 97.6476V86.7243C119.184 86.4007 119.446 86.1384 119.77 86.1384H130.227C130.66 86.1384 131.012 85.7864 131.012 85.3537V85.2663C131.012 84.8336 130.66 84.4816 130.227 84.4816H119.77C119.446 84.4816 119.184 84.2193 119.184 83.8957V74.3817C119.184 74.058 119.446 73.7957 119.77 73.7957H130.23C130.451 73.7957 130.66 73.7097 130.816 73.5534C130.972 73.3971 131.058 73.1889 131.058 72.9675C131.058 72.5107 130.687 72.1392 130.23 72.1392H119.77C119.446 72.1392 119.184 71.8769 119.184 71.5532V61.2677C119.184 60.944 119.446 60.6818 119.77 60.6818H130.955C131.177 60.6818 131.385 60.5955 131.541 60.4392C131.697 60.2831 131.783 60.075 131.783 59.8532C131.783 59.3964 131.412 59.025 130.955 59.025H119.77C119.446 59.025 119.184 58.7627 119.184 58.439V54.4148C119.184 49.9982 122.777 46.4053 127.193 46.4053H178.688C183.104 46.4053 186.697 49.9985 186.697 54.4148V97.6476C186.697 97.9713 186.435 98.2336 186.111 98.2336ZM142.659 97.0617H185.526V54.4148C185.526 50.6444 182.458 47.5771 178.688 47.5771H127.193C123.423 47.5771 120.355 50.6444 120.355 54.4148V57.8531H130.955C132.058 57.8531 132.955 58.7505 132.955 59.8532C132.955 60.3876 132.747 60.8901 132.37 61.2679C131.992 61.6455 131.489 61.8536 130.955 61.8536H120.355V70.9673H130.23C131.333 70.9673 132.23 71.8647 132.23 72.9675C132.23 73.5018 132.022 74.0043 131.645 74.3821C131.267 74.7597 130.764 74.9679 130.23 74.9679H120.355V83.3102H130.227C131.306 83.3102 132.184 84.1879 132.184 85.2668V85.3542C132.184 86.433 131.306 87.3107 130.227 87.3107H120.355V97.0621H131.337C132.921 95.7339 134.922 95.005 136.998 95.005C139.073 95.005 141.075 95.7335 142.659 97.0617Z" fill="white"/>
<path d="M213.673 98.2332H208.011C207.87 98.2332 207.733 98.1821 207.627 98.0895C207.594 98.0614 207.562 98.0333 207.53 98.0075C206.14 96.822 204.383 96.1761 202.567 96.1761C200.752 96.1761 198.995 96.8223 197.62 97.9953C197.574 98.0323 197.543 98.0593 197.512 98.086C197.405 98.1784 197.265 98.2332 197.124 98.2332H188.941C188.786 98.2332 188.636 98.1713 188.527 98.0609C188.417 97.9508 188.355 97.8015 188.355 97.6456L188.402 80.5149V67.6852C188.402 66.3015 189.527 65.1758 190.911 65.1758H208.325C210.197 65.1758 211.811 66.5734 212.08 68.4266L214.222 83.1992C214.247 83.3745 214.259 83.5508 214.259 83.7256V97.6473C214.259 97.9709 213.997 98.2332 213.673 98.2332ZM208.226 97.0613H213.087V83.7256C213.087 83.6052 213.079 83.484 213.062 83.3649L210.921 68.5946C210.735 67.3135 209.619 66.3477 208.325 66.3477H190.911C190.174 66.3477 189.574 66.9477 189.574 67.6852V80.5166L189.529 97.0613H196.91C198.477 95.7385 200.489 95.0042 202.568 95.0042C204.639 95.0042 206.646 95.7343 208.226 97.0613Z" fill="white"/>
<path d="M128.769 104.404H119.769C117.745 104.404 116.098 102.757 116.098 100.732C116.098 99.75 116.479 98.8275 117.172 98.1347C117.864 97.4419 118.787 97.0605 119.769 97.0605H131.554C131.797 97.0605 132.016 97.2112 132.102 97.4391C132.188 97.6669 132.125 97.9242 131.942 98.0855C130.298 99.5388 129.355 101.628 129.355 103.818C129.355 104.142 129.093 104.404 128.769 104.404ZM119.769 98.2327C119.1 98.2327 118.472 98.4921 118.001 98.9634C117.529 99.4348 117.27 100.063 117.27 100.732C117.27 102.111 118.391 103.232 119.769 103.232H128.203C128.325 101.396 129.021 99.6485 130.18 98.2327H119.769Z" fill="white"/>
<path d="M194.34 104.405H145.226C144.903 104.405 144.64 104.142 144.64 103.819C144.64 101.629 143.697 99.5398 142.053 98.0864C141.871 97.9252 141.807 97.6676 141.893 97.44C141.98 97.2122 142.198 97.0615 142.441 97.0615H197.125C197.368 97.0615 197.587 97.2122 197.673 97.44C197.759 97.6679 197.696 97.9252 197.513 98.0864C195.869 99.5398 194.926 101.629 194.926 103.819C194.926 104.142 194.664 104.405 194.34 104.405ZM145.793 103.233H193.774C193.896 101.397 194.592 99.6493 195.75 98.2334H143.816C144.975 99.6493 145.67 101.397 145.793 103.233Z" fill="white"/>
<path d="M214.397 104.405H210.797C210.473 104.405 210.211 104.142 210.211 103.819C210.211 101.629 209.268 99.5398 207.624 98.0864C207.441 97.9252 207.378 97.6676 207.464 97.44C207.55 97.2122 207.768 97.0615 208.012 97.0615H214.397C216.421 97.0615 218.068 98.7085 218.068 100.733C218.068 102.758 216.421 104.405 214.397 104.405ZM211.363 103.233H214.396C215.775 103.233 216.896 102.111 216.896 100.733C216.896 99.3547 215.775 98.2332 214.396 98.2332H209.386C210.545 99.6493 211.24 101.397 211.363 103.233Z" fill="white"/>
<path d="M202.569 108.005C200.261 108.005 198.383 106.127 198.383 103.819C198.383 101.511 200.261 99.6328 202.569 99.6328C204.877 99.6328 206.755 101.511 206.755 103.819C206.755 106.127 204.877 108.005 202.569 108.005ZM202.569 100.805C200.907 100.805 199.555 102.157 199.555 103.819C199.555 105.481 200.907 106.833 202.569 106.833C204.231 106.833 205.583 105.481 205.583 103.819C205.583 102.157 204.23 100.805 202.569 100.805Z" fill="white"/>
<path d="M202.568 112.633C197.708 112.633 193.754 108.679 193.754 103.818C193.754 101.293 194.841 98.8835 196.737 97.208C196.789 97.163 196.832 97.1257 196.875 97.0912C198.447 95.7494 200.474 95.0039 202.568 95.0039C204.662 95.0039 206.689 95.7497 208.276 97.1034C208.306 97.1271 208.351 97.1658 208.396 97.2047C208.397 97.2059 208.399 97.2068 208.4 97.208C210.296 98.8835 211.383 101.293 211.383 103.818C211.383 108.679 207.429 112.633 202.568 112.633ZM202.568 96.1758C200.753 96.1758 198.996 96.822 197.621 97.995C197.575 98.032 197.544 98.059 197.513 98.0857C195.869 99.5393 194.926 101.629 194.926 103.818C194.926 108.032 198.354 111.461 202.568 111.461C206.782 111.461 210.211 108.032 210.211 103.818C210.211 101.629 209.268 99.5407 207.625 98.0873C207.594 98.0599 207.562 98.0323 207.53 98.0072C206.141 96.8217 204.384 96.1758 202.568 96.1758ZM202.568 108.004C200.26 108.004 198.382 106.126 198.382 103.818C198.382 101.51 200.26 99.6323 202.568 99.6323C204.876 99.6323 206.754 101.51 206.754 103.818C206.754 106.126 204.876 108.004 202.568 108.004ZM202.568 100.804C200.906 100.804 199.554 102.156 199.554 103.818C199.554 105.48 200.906 106.832 202.568 106.832C204.23 106.832 205.582 105.48 205.582 103.818C205.582 102.156 204.23 100.804 202.568 100.804Z" fill="white"/>
<path d="M136.996 112.633C132.136 112.633 128.182 108.679 128.182 103.818C128.182 101.293 129.269 98.8835 131.165 97.208C132.774 95.7865 134.845 95.0039 136.996 95.0039C139.147 95.0039 141.218 95.7865 142.828 97.2077C142.828 97.2077 142.828 97.2077 142.828 97.208C144.723 98.8835 145.811 101.293 145.811 103.818C145.81 108.679 141.856 112.633 136.996 112.633ZM136.996 96.1758C135.131 96.1758 133.335 96.8543 131.94 98.0862C130.296 99.5393 129.354 101.629 129.354 103.818C129.354 108.032 132.782 111.461 136.996 111.461C141.21 111.461 144.639 108.032 144.639 103.818C144.639 101.629 143.696 99.5393 142.051 98.0859C140.656 96.8541 138.861 96.1758 136.996 96.1758ZM136.996 108.004C134.688 108.004 132.81 106.126 132.81 103.818C132.81 101.51 134.688 99.6323 136.996 99.6323C139.304 99.6323 141.182 101.51 141.182 103.818C141.182 106.126 139.304 108.004 136.996 108.004ZM136.996 100.804C135.334 100.804 133.982 102.156 133.982 103.818C133.982 105.48 135.334 106.832 136.996 106.832C138.658 106.832 140.01 105.48 140.01 103.818C140.01 102.156 138.658 100.804 136.996 100.804Z" fill="white"/>
<path d="M136.996 108.005C134.688 108.005 132.811 106.127 132.811 103.819C132.811 101.511 134.688 99.6328 136.996 99.6328C139.305 99.6328 141.182 101.511 141.182 103.819C141.182 106.127 139.305 108.005 136.996 108.005ZM136.996 100.805C135.335 100.805 133.982 102.157 133.982 103.819C133.982 105.481 135.335 106.833 136.996 106.833C138.658 106.833 140.011 105.481 140.011 103.819C140.011 102.157 138.658 100.805 136.996 100.805Z" fill="white"/>
<path d="M207.862 80.2332H194.377C193.189 80.2332 192.223 79.2668 192.223 78.0793V70.3512C192.223 68.9152 193.391 67.7471 194.827 67.7471H205.858C207.228 67.7471 208.379 68.7293 208.594 70.0826L209.84 77.9154C209.933 78.4953 209.767 79.0838 209.386 79.5305C209.005 79.977 208.45 80.2332 207.862 80.2332ZM194.827 68.9189C194.037 68.9189 193.395 69.5616 193.395 70.3512V78.0793C193.395 78.6209 193.835 79.0613 194.377 79.0613H207.863C208.106 79.0613 208.337 78.9549 208.495 78.7697C208.653 78.5846 208.722 78.3401 208.684 78.0996L207.437 70.2668C207.313 69.4859 206.649 68.9192 205.858 68.9192L194.827 68.9189Z" fill="white"/>
<path d="M213.625 94.3759H210.539C210.215 94.3759 209.953 94.1137 209.953 93.79V89.6758C209.953 89.3521 210.215 89.0898 210.539 89.0898H213.625C213.949 89.0898 214.211 89.3521 214.211 89.6758V93.79C214.211 94.1137 213.949 94.3759 213.625 94.3759ZM211.125 93.2041H213.039V90.2617H211.125V93.2041Z" fill="white"/>
<path d="M152.939 87.8243C144.393 87.8243 137.439 80.8711 137.439 72.3244C137.439 63.7777 144.393 56.8242 152.939 56.8242C161.486 56.8242 168.44 63.7774 168.44 72.3244C168.44 80.8711 161.486 87.8243 152.939 87.8243ZM152.939 57.9961C145.039 57.9961 138.611 64.4236 138.611 72.3244C138.611 80.2249 145.039 86.6524 152.939 86.6524C160.84 86.6524 167.268 80.2249 167.268 72.3244C167.268 64.4236 160.84 57.9961 152.939 57.9961Z" fill="white"/>
<path d="M161.168 72.9102H152.939C152.616 72.9102 152.354 72.6479 152.354 72.3242C152.354 72.0005 152.616 71.7383 152.939 71.7383H161.168C161.492 71.7383 161.754 72.0005 161.754 72.3242C161.754 72.6479 161.492 72.9102 161.168 72.9102Z" fill="white"/>
<path d="M152.939 72.9102C152.616 72.9102 152.354 72.6479 152.354 72.3242V63.3242C152.354 63.0005 152.616 62.7383 152.939 62.7383C153.263 62.7383 153.525 63.0005 153.525 63.3242V72.3242C153.525 72.6479 153.263 72.9102 152.939 72.9102Z" fill="white"/>
<path d="M130.23 74.9673H107.041C105.938 74.9673 105.041 74.0699 105.041 72.9672C105.041 72.4326 105.249 71.9303 105.627 71.5525C106.004 71.1749 106.507 70.9668 107.041 70.9668H130.23C131.333 70.9668 132.23 71.8642 132.23 72.967C132.23 73.5013 132.022 74.0038 131.645 74.3816C131.267 74.7595 130.764 74.9673 130.23 74.9673ZM107.041 72.1387C106.82 72.1387 106.612 72.2247 106.455 72.381C106.299 72.5373 106.213 72.7455 106.213 72.967C106.213 73.4237 106.584 73.7952 107.041 73.7952H130.23C130.451 73.7952 130.66 73.7092 130.816 73.5529C130.972 73.3966 131.058 73.1884 131.058 72.967C131.058 72.5102 130.687 72.1387 130.23 72.1387H107.041Z" fill="white"/>
<path d="M130.954 61.8531H103.697C102.594 61.8531 101.697 60.9557 101.697 59.8529C101.697 59.3183 101.905 58.8161 102.283 58.4382C102.661 58.0607 103.163 57.8525 103.697 57.8525H130.954C132.057 57.8525 132.954 58.75 132.954 59.8527C132.954 60.3871 132.747 60.8896 132.369 61.2674C131.991 61.6452 131.489 61.8531 130.954 61.8531ZM103.697 59.0246C103.476 59.0246 103.268 59.1107 103.111 59.267C102.955 59.4233 102.869 59.6314 102.869 59.8529C102.869 60.3097 103.241 60.6812 103.697 60.6812H130.954C131.176 60.6812 131.384 60.595 131.54 60.4386C131.697 60.2825 131.783 60.0744 131.783 59.8527C131.783 59.3959 131.411 59.0244 130.954 59.0244L103.697 59.0246Z" fill="white"/>
<path d="M130.227 87.3101H112.654C111.575 87.3101 110.697 86.4324 110.697 85.3536V85.2661C110.697 84.1873 111.575 83.3096 112.654 83.3096H130.227C131.306 83.3096 132.183 84.1873 132.183 85.2661V85.3536C132.183 86.4324 131.306 87.3101 130.227 87.3101ZM112.654 84.4817C112.221 84.4817 111.869 84.8337 111.869 85.2664V85.3538C111.869 85.7864 112.221 86.1385 112.654 86.1385H130.227C130.659 86.1385 131.011 85.7864 131.011 85.3538V85.2664C131.011 84.8337 130.659 84.4817 130.227 84.4817H112.654Z" fill="white"/>
<path d="M170.682 72.9106C170.358 72.9106 170.096 72.6484 170.096 72.3247C170.096 62.8644 162.4 55.168 152.939 55.168C152.616 55.168 152.354 54.9057 152.354 54.582C152.354 54.2584 152.616 53.9961 152.939 53.9961C163.046 53.9961 171.268 62.2184 171.268 72.3247C171.268 72.6484 171.006 72.9106 170.682 72.9106Z" fill="white"/>
<path d="M152.94 90.6528C142.833 90.6528 134.611 82.4307 134.611 72.3242C134.611 72.0005 134.874 71.7383 135.197 71.7383C135.521 71.7383 135.783 72.0005 135.783 72.3242C135.783 81.7845 143.48 89.4809 152.94 89.4809C153.264 89.4809 153.526 89.7432 153.526 90.0669C153.526 90.3905 153.264 90.6528 152.94 90.6528Z" fill="white"/>
<path d="M112.7 159.64L109.92 156.86C109.24 157.047 108.547 157.14 107.84 157.14C106.547 157.14 105.367 156.84 104.3 156.24C103.234 155.627 102.387 154.78 101.76 153.7C101.147 152.607 100.84 151.38 100.84 150.02C100.84 148.66 101.147 147.44 101.76 146.36C102.387 145.267 103.234 144.42 104.3 143.82C105.367 143.207 106.547 142.9 107.84 142.9C109.147 142.9 110.334 143.207 111.4 143.82C112.467 144.42 113.307 145.26 113.92 146.34C114.534 147.42 114.84 148.647 114.84 150.02C114.84 151.353 114.547 152.553 113.96 153.62C113.374 154.687 112.567 155.527 111.54 156.14L115.06 159.64H112.7ZM102.7 150.02C102.7 151.127 102.92 152.1 103.36 152.94C103.814 153.78 104.427 154.427 105.2 154.88C105.987 155.333 106.867 155.56 107.84 155.56C108.814 155.56 109.687 155.333 110.46 154.88C111.247 154.427 111.86 153.78 112.3 152.94C112.754 152.1 112.98 151.127 112.98 150.02C112.98 148.9 112.754 147.927 112.3 147.1C111.86 146.26 111.254 145.613 110.48 145.16C109.707 144.707 108.827 144.48 107.84 144.48C106.854 144.48 105.974 144.707 105.2 145.16C104.427 145.613 103.814 146.26 103.36 147.1C102.92 147.927 102.7 148.9 102.7 150.02ZM127.002 146.04V157H125.182V155.38C124.836 155.94 124.349 156.38 123.722 156.7C123.109 157.007 122.429 157.16 121.682 157.16C120.829 157.16 120.062 156.987 119.382 156.64C118.702 156.28 118.162 155.747 117.762 155.04C117.376 154.333 117.182 153.473 117.182 152.46V146.04H118.982V152.22C118.982 153.3 119.256 154.133 119.802 154.72C120.349 155.293 121.096 155.58 122.042 155.58C123.016 155.58 123.782 155.28 124.342 154.68C124.902 154.08 125.182 153.207 125.182 152.06V146.04H127.002ZM131.015 144.26C130.668 144.26 130.375 144.14 130.135 143.9C129.895 143.66 129.775 143.367 129.775 143.02C129.775 142.673 129.895 142.38 130.135 142.14C130.375 141.9 130.668 141.78 131.015 141.78C131.348 141.78 131.628 141.9 131.855 142.14C132.095 142.38 132.215 142.673 132.215 143.02C132.215 143.367 132.095 143.66 131.855 143.9C131.628 144.14 131.348 144.26 131.015 144.26ZM131.895 146.04V157H130.075V146.04H131.895ZM134.317 151.5C134.317 150.367 134.544 149.38 134.997 148.54C135.45 147.687 136.077 147.027 136.877 146.56C137.69 146.093 138.617 145.86 139.657 145.86C141.004 145.86 142.11 146.187 142.977 146.84C143.857 147.493 144.437 148.4 144.717 149.56H142.757C142.57 148.893 142.204 148.367 141.657 147.98C141.124 147.593 140.457 147.4 139.657 147.4C138.617 147.4 137.777 147.76 137.137 148.48C136.497 149.187 136.177 150.193 136.177 151.5C136.177 152.82 136.497 153.84 137.137 154.56C137.777 155.28 138.617 155.64 139.657 155.64C140.457 155.64 141.124 155.453 141.657 155.08C142.19 154.707 142.557 154.173 142.757 153.48H144.717C144.424 154.6 143.837 155.5 142.957 156.18C142.077 156.847 140.977 157.18 139.657 157.18C138.617 157.18 137.69 156.947 136.877 156.48C136.077 156.013 135.45 155.353 134.997 154.5C134.544 153.647 134.317 152.647 134.317 151.5ZM153.265 157L148.965 152.16V157H147.145V142.2H148.965V150.9L153.185 146.04H155.725L150.565 151.5L155.745 157H153.265ZM162.09 151.48C162.09 150.36 162.317 149.38 162.77 148.54C163.224 147.687 163.844 147.027 164.63 146.56C165.43 146.093 166.324 145.86 167.31 145.86C168.257 145.86 169.084 146.073 169.79 146.5C170.51 146.913 171.037 147.427 171.37 148.04V146.04H173.21V162.2H171.37V154.98C171.024 155.593 170.49 156.113 169.77 156.54C169.05 156.967 168.21 157.18 167.25 157.18C166.29 157.18 165.417 156.94 164.63 156.46C163.844 155.98 163.224 155.307 162.77 154.44C162.317 153.573 162.09 152.587 162.09 151.48ZM171.37 151.5C171.37 150.673 171.204 149.953 170.87 149.34C170.537 148.727 170.084 148.26 169.51 147.94C168.95 147.607 168.33 147.44 167.65 147.44C166.97 147.44 166.35 147.6 165.79 147.92C165.23 148.24 164.784 148.707 164.45 149.32C164.117 149.933 163.95 150.653 163.95 151.48C163.95 152.32 164.117 153.053 164.45 153.68C164.784 154.293 165.23 154.767 165.79 155.1C166.35 155.42 166.97 155.58 167.65 155.58C168.33 155.58 168.95 155.42 169.51 155.1C170.084 154.767 170.537 154.293 170.87 153.68C171.204 153.053 171.37 152.327 171.37 151.5ZM186.006 146.04V157H184.186V155.38C183.839 155.94 183.353 156.38 182.726 156.7C182.113 157.007 181.433 157.16 180.686 157.16C179.833 157.16 179.066 156.987 178.386 156.64C177.706 156.28 177.166 155.747 176.766 155.04C176.379 154.333 176.186 153.473 176.186 152.46V146.04H177.986V152.22C177.986 153.3 178.259 154.133 178.806 154.72C179.353 155.293 180.099 155.58 181.046 155.58C182.019 155.58 182.786 155.28 183.346 154.68C183.906 154.08 184.186 153.207 184.186 152.06V146.04H186.006ZM193.859 157.18C192.832 157.18 191.899 156.947 191.059 156.48C190.232 156.013 189.579 155.353 189.099 154.5C188.632 153.633 188.399 152.633 188.399 151.5C188.399 150.38 188.639 149.393 189.119 148.54C189.612 147.673 190.279 147.013 191.119 146.56C191.959 146.093 192.899 145.86 193.939 145.86C194.979 145.86 195.919 146.093 196.759 146.56C197.599 147.013 198.259 147.667 198.739 148.52C199.232 149.373 199.479 150.367 199.479 151.5C199.479 152.633 199.226 153.633 198.719 154.5C198.226 155.353 197.552 156.013 196.699 156.48C195.846 156.947 194.899 157.18 193.859 157.18ZM193.859 155.58C194.512 155.58 195.126 155.427 195.699 155.12C196.272 154.813 196.732 154.353 197.079 153.74C197.439 153.127 197.619 152.38 197.619 151.5C197.619 150.62 197.446 149.873 197.099 149.26C196.752 148.647 196.299 148.193 195.739 147.9C195.179 147.593 194.572 147.44 193.919 147.44C193.252 147.44 192.639 147.593 192.079 147.9C191.532 148.193 191.092 148.647 190.759 149.26C190.426 149.873 190.259 150.62 190.259 151.5C190.259 152.393 190.419 153.147 190.739 153.76C191.072 154.373 191.512 154.833 192.059 155.14C192.606 155.433 193.206 155.58 193.859 155.58ZM204.092 147.54V154C204.092 154.533 204.205 154.913 204.432 155.14C204.659 155.353 205.052 155.46 205.612 155.46H206.952V157H205.312C204.299 157 203.539 156.767 203.032 156.3C202.525 155.833 202.272 155.067 202.272 154V147.54H200.852V146.04H202.272V143.28H204.092V146.04H206.952V147.54H204.092ZM219.157 151.1C219.157 151.447 219.137 151.813 219.097 152.2H210.337C210.404 153.28 210.771 154.127 211.437 154.74C212.117 155.34 212.937 155.64 213.897 155.64C214.684 155.64 215.337 155.46 215.857 155.1C216.391 154.727 216.764 154.233 216.977 153.62H218.937C218.644 154.673 218.057 155.533 217.177 156.2C216.297 156.853 215.204 157.18 213.897 157.18C212.857 157.18 211.924 156.947 211.097 156.48C210.284 156.013 209.644 155.353 209.177 154.5C208.711 153.633 208.477 152.633 208.477 151.5C208.477 150.367 208.704 149.373 209.157 148.52C209.611 147.667 210.244 147.013 211.057 146.56C211.884 146.093 212.831 145.86 213.897 145.86C214.937 145.86 215.857 146.087 216.657 146.54C217.457 146.993 218.071 147.62 218.497 148.42C218.937 149.207 219.157 150.1 219.157 151.1ZM217.277 150.72C217.277 150.027 217.124 149.433 216.817 148.94C216.511 148.433 216.091 148.053 215.557 147.8C215.037 147.533 214.457 147.4 213.817 147.4C212.897 147.4 212.111 147.693 211.457 148.28C210.817 148.867 210.451 149.68 210.357 150.72H217.277Z" fill="white"/>
</g>
<defs>
<filter id="filter0_d_315_109366" x="-72" y="-40" width="464" height="324" filterUnits="userSpaceOnUse" color-interpolation-filters="sRGB">
<feFlood flood-opacity="0" result="BackgroundImageFix"/>
<feColorMatrix in="SourceAlpha" type="matrix" values="0 0 0 0 0 0 0 0 0 0 0 0 0 0 0 0 0 0 127 0" result="hardAlpha"/>
<feOffset dy="32"/>
<feGaussianBlur stdDeviation="36"/>
<feComposite in2="hardAlpha" operator="out"/>
<feColorMatrix type="matrix" values="0 0 0 0 0.078875 0 0 0 0 0.0770833 0 0 0 0 0.166667 0 0 0 0.24 0"/>
<feBlend mode="normal" in2="BackgroundImageFix" result="effect1_dropShadow_315_109366"/>
<feBlend mode="normal" in="SourceGraphic" in2="effect1_dropShadow_315_109366" result="shape"/>
</filter>
</defs>
</svg>
