<svg width="144" height="46" viewBox="0 0 144 46" fill="none" xmlns="http://www.w3.org/2000/svg">
<path d="M120.322 24.3186L112.048 43.6781C111.507 44.9441 110.263 45.7653 108.886 45.7653C106.387 45.7653 104.723 43.1841 105.754 40.9078L108.188 35.5343C108.605 34.6132 108.618 33.5597 108.224 32.6286L101.569 16.905C100.57 14.5446 102.302 11.9297 104.866 11.9297C106.362 11.9297 107.7 12.8603 108.221 14.263L110.058 19.2068C110.96 21.6358 114.397 21.6314 115.293 19.2002L115.329 19.1038L116.785 15.4109L120.322 24.3186Z" fill="#FCFCFC"/>
<path d="M43.5465 9.5443C42.3069 9.5443 41.2877 9.18799 40.4889 8.47537C39.7177 7.73535 39.332 6.83087 39.332 5.76195C39.332 4.66561 39.7177 3.76113 40.4889 3.04852C41.2877 2.30849 42.3069 1.93848 43.5465 1.93848C44.7585 1.93848 45.7501 2.30849 46.5214 3.04852C47.3202 3.76113 47.7196 4.66561 47.7196 5.76195C47.7196 6.83087 47.3202 7.73535 46.5214 8.47537C45.7501 9.18799 44.7585 9.5443 43.5465 9.5443ZM43.5258 11.9288C45.4769 11.9288 47.0585 13.5105 47.0585 15.4615V31.3369C47.0585 33.288 45.4769 34.8696 43.5258 34.8696C41.5748 34.8696 39.9931 33.288 39.9931 31.3369V15.4615C39.9931 13.5105 41.5748 11.9288 43.5258 11.9288Z" fill="#FCFCFC"/>
<path d="M138.765 11.9297C141.245 11.9297 142.917 14.4634 141.943 16.7432L136.769 28.8475L132.281 38.6758C131.746 39.8469 130.577 40.5981 129.29 40.5981C126.845 40.5981 125.255 38.0241 126.35 35.8376L126.818 34.9011C127.076 34.386 127.096 33.7838 126.871 33.2533L119.952 16.905C118.952 14.5446 120.685 11.9297 123.248 11.9297C124.745 11.9297 126.083 12.8603 126.604 14.263L128.066 18.1971C129.097 20.973 133.025 20.968 134.049 18.1896L135.523 14.1901C136.024 12.8319 137.318 11.9297 138.765 11.9297Z" fill="#FCFCFC"/>
<path d="M89.1027 11.5742L81.2523 11.9853L79.875 13.7669L81.6654 17.467L89.1027 11.5742Z" fill="#FCFCFC"/>
<path fill-rule="evenodd" clip-rule="evenodd" d="M64.1561 11.5866C64.1619 11.5821 64.1584 11.5729 64.1511 11.5733L57.1838 11.9381C57.181 11.9383 57.1787 11.936 57.1787 11.9332C57.1787 11.9305 57.1765 11.9283 57.1737 11.9283H53.646C51.6949 11.9283 50.1133 13.5099 50.1133 15.461V35.4202C50.1133 37.3713 51.6949 38.9529 53.646 38.9529H55.2237C56.3034 38.9529 57.1787 38.0776 57.1787 36.9979C57.1787 35.9044 58.0756 35.0235 59.169 35.0432L62.9089 35.1109C63.3519 35.169 63.8107 35.198 64.2854 35.198C66.186 35.198 67.9076 34.7183 69.4501 33.759C70.9926 32.7723 72.2046 31.3882 73.0861 29.6067C73.9951 27.7977 74.4496 25.7147 74.4496 23.3576C74.4496 21.0005 73.9951 18.9311 73.0861 17.1496C72.2046 15.368 70.9926 13.9976 69.4501 13.0383C67.9076 12.079 66.186 11.5994 64.2854 11.5994C64.2437 11.5994 64.2022 11.5996 64.1609 11.6C64.1537 11.6001 64.1505 11.5911 64.1561 11.5866ZM67.2603 23.3576C67.2603 21.6034 66.7644 20.233 65.7728 19.2463C64.8087 18.2322 63.6105 17.7252 62.1781 17.7252C60.7733 17.7252 59.5751 18.2322 58.5835 19.2463C57.6194 20.2604 57.1373 21.6445 57.1373 23.3987C57.1373 25.1528 57.6194 26.5369 58.5835 27.5511C59.5751 28.5652 60.7733 29.0722 62.1781 29.0722C63.5829 29.0722 64.7812 28.5652 65.7728 27.5511C66.7644 26.5095 67.2603 25.1117 67.2603 23.3576Z" fill="#FCFCFC"/>
<path fill-rule="evenodd" clip-rule="evenodd" d="M90.0604 11.5866C90.0662 11.5821 90.0627 11.5729 90.0554 11.5733L83.0881 11.9381C83.0853 11.9383 83.083 11.936 83.083 11.9332C83.083 11.9305 83.0807 11.9283 83.078 11.9283H79.5503C77.5992 11.9283 76.0176 13.5099 76.0176 15.461V35.4202C76.0176 37.3713 77.5992 38.9529 79.5503 38.9529H81.128C82.2077 38.9529 83.083 38.0776 83.083 36.9979C83.083 35.9044 83.9799 35.0235 85.0733 35.0432L88.8133 35.1109C89.2563 35.169 89.7151 35.198 90.1897 35.198C92.0903 35.198 93.8119 34.7183 95.3544 33.759C96.8969 32.7723 98.1089 31.3882 98.9904 29.6067C99.8994 27.7977 100.354 25.7147 100.354 23.3576C100.354 21.0005 99.8994 18.9311 98.9904 17.1496C98.1089 15.368 96.8969 13.9976 95.3544 13.0383C93.8119 12.079 92.0903 11.5994 90.1897 11.5994C90.148 11.5994 90.1065 11.5996 90.0652 11.6C90.058 11.6001 90.0548 11.5911 90.0604 11.5866ZM93.1645 23.3576C93.1645 21.6034 92.6687 20.233 91.6771 19.2463C90.713 18.2322 89.5148 17.7252 88.0824 17.7252C86.6776 17.7252 85.4794 18.2322 84.4878 19.2463C83.5237 20.2604 83.0416 21.6445 83.0416 23.3987C83.0416 25.1528 83.5237 26.5369 84.4878 27.5511C85.4794 28.5652 86.6776 29.0722 88.0824 29.0722C89.4872 29.0722 90.6855 28.5652 91.6771 27.5511C92.6687 26.5095 93.1645 25.1117 93.1645 23.3576Z" fill="#FCFCFC"/>
<path d="M89.6544 35.1454L82.0794 35.0084L80.5645 29.8008L89.6544 35.1454Z" fill="#FCFCFC"/>
<rect x="33.6543" y="11.7988" width="6.95241" height="23.2426" rx="3.4849" transform="rotate(90 33.6543 11.7988)" fill="white"/>
<rect x="33.6543" y="11.7988" width="6.95241" height="23.2426" rx="3.4849" transform="rotate(90 33.6543 11.7988)" fill="url(#paint0_linear_315_109528)"/>
<rect width="6.96981" height="29.6779" rx="3.4849" transform="matrix(0.708867 0.705342 -0.708867 0.705342 30.2012 10.3447)" fill="white"/>
<rect width="6.96981" height="29.6779" rx="3.4849" transform="matrix(0.708867 0.705342 -0.708867 0.705342 30.2012 10.3447)" fill="url(#paint1_linear_315_109528)"/>
<path d="M30.4127 27.8037C32.3421 27.8037 33.9062 29.3601 33.9062 31.2799C33.9062 33.1998 32.3421 34.7561 30.4127 34.7561H29.6375C27.7081 34.7561 26.1439 33.1998 26.1439 31.2799C26.1439 29.3601 27.7081 27.8037 29.6375 27.8037H30.4127Z" fill="white"/>
<defs>
<linearGradient id="paint0_linear_315_109528" x1="37.2355" y1="15.3318" x2="40.7184" y2="36.9218" gradientUnits="userSpaceOnUse">
<stop stop-color="#EBBCB3"/>
<stop offset="1" stop-color="white" stop-opacity="0"/>
</linearGradient>
<linearGradient id="paint1_linear_315_109528" x1="3.5902" y1="4.51114" x2="9.16654" y2="31.6506" gradientUnits="userSpaceOnUse">
<stop stop-color="white" stop-opacity="0"/>
<stop offset="0.919417" stop-color="#EBBCB3"/>
</linearGradient>
</defs>
</svg>
